<svg width="48" height="48" viewBox="0 0 48 48" xmlns="http://www.w3.org/2000/svg">
<path d="M0 24C0 10.745 10.745 0 24 0C37.255 0 48 10.745 48 24C48 37.255 37.255 48 24 48C10.745 48 0 37.255 0 24Z" fill="black"/>
<path d="M24.0547 16.5385C25.138 16.5385 26.4959 15.8061 27.3045 14.8296C28.0369 13.9447 28.5709 12.7088 28.5709 11.473C28.5709 11.3051 28.5556 11.1373 28.5251 11C27.3198 11.0458 25.8703 11.8086 25.0006 12.8309C24.3141 13.609 23.6885 14.8296 23.6885 16.0807C23.6885 16.2638 23.719 16.4469 23.7343 16.5079C23.8106 16.5232 23.9326 16.5385 24.0547 16.5385ZM20.2403 35C21.7203 35 22.3764 34.0083 24.2225 34.0083C26.0992 34.0083 26.5111 34.9695 28.1589 34.9695C29.7762 34.9695 30.8595 33.4743 31.8818 32.0095C33.0261 30.3312 33.499 28.6834 33.5296 28.6071C33.4228 28.5766 30.3255 27.3102 30.3255 23.7552C30.3255 20.6732 32.7667 19.2848 32.904 19.178C31.2867 16.8589 28.8303 16.7978 28.1589 16.7978C26.3433 16.7978 24.8633 17.8964 23.9326 17.8964C22.9256 17.8964 21.5982 16.8589 20.0267 16.8589C17.0362 16.8589 14 19.3306 14 23.9994C14 26.8983 15.1291 29.965 16.5175 31.9485C17.7076 33.6268 18.7451 35 20.2403 35Z" fill="white"/>
</svg>
