<svg width="48px" height="48px" viewBox="0 0 48 48" version="1.1" xmlns="http://www.w3.org/2000/svg">
<path d="M 0 24 C 0 10.7 10.7 0 24 0 C 37.3 0 48 10.7 48 24 C 48 37.3 37.3 48 24 48 C 10.7 48 0 37.3 0 24 Z" fill="#eeeeee" /> 
    <g id="Google-Button" fill="none" fill-rule="evenodd">
        <g id="logo_googleg_48dp" transform="translate(15,15)">
            <path d="M 17.6 9.2 C 17.6 8.6 17.6 8 17.5 7.4 L 9 7.4 L 9 10.8 L 13.8 10.8 C 13.6 12 13 12.9 12 13.6 L 12 15.8 L 15 15.8 C 16.7 14.3 17.6 11.9 17.6 9.2 L 17.6 9.2 Z" id="Shape" fill="#4285f4"></path>
            <path d="M 9 18 C 11.4 18 13.5 17.2 15 15.8 L 12 13.6 C 11.2 14.1 10.2 14.4 9 14.4 C 6.7 14.4 4.7 12.8 4 10.7 L 1 10.7 L 1 13 C 2.4 16 5.5 18 9 18 L 9 18 Z" id="Shape" fill="#34a853"></path>
            <path d="M 4 10.7 C 3.8 10.2 3.7 9.6 3.7 9 C 3.7 8.4 3.8 7.8 4 7.3 L 4 5 L 1 5 C 0.3 6.2 0 7.5 0 9 C 0 10.5 0.3 11.8 1 13 L 4 10.7 L 4 10.7 Z" id="Shape" fill="#fbbc05"></path>
            <path d="M 9 3.6 C 10.3 3.6 11.5 4 12.4 4.9 L 15 2.3 C 13.5 0.9 11.4 0 9 0 C 5.5 0 2.4 2 1 5 L 4 7.3 C 4.7 5.2 6.7 3.6 9 3.6 L 9 3.6 Z" id="Shape" fill="#ea4335"></path>
            <path d="M 0 0 L 18 0 L 18 18 L 0 18 L 0 0 Z" id="Shape"></path>
        </g>
    </g>
</svg>