<svg version="1.0" xmlns="http://www.w3.org/2000/svg"
 width="30" height="30" viewBox="0 0 160 160"
 preserveAspectRatio="xMidYMid meet">

<g transform="translate(0.000000,160.000000) scale(0.100000,-0.100000)"
fill="currentcolor" stroke="none">
<path d="M227 1530 c-31 -25 -53 -110 -43 -166 9 -43 59 -99 99 -110 82 -20
136 116 88 222 -33 72 -93 94 -144 54z"/>
<path d="M524 1543 c-43 -8 -59 -39 -59 -118 0 -67 3 -76 31 -112 41 -51 76
-63 105 -37 52 46 66 156 27 214 -25 36 -69 58 -104 53z"/>
<path d="M716 1359 c-21 -17 -26 -29 -26 -65 0 -106 85 -161 156 -101 44 38
29 118 -32 166 -34 27 -64 27 -98 0z"/>
<path d="M23 1263 c-11 -17 -17 -46 -18 -84 0 -48 5 -64 30 -101 50 -70 117
-77 155 -15 36 59 14 159 -45 205 -41 32 -99 30 -122 -5z"/>
<path d="M400 1232 c-33 -5 -87 -47 -111 -85 -10 -17 -21 -52 -25 -77 -3 -25
-14 -74 -25 -109 -36 -120 -17 -197 56 -221 53 -17 97 -7 177 41 62 38 78 43
160 50 53 5 106 16 126 27 49 25 74 75 69 132 -6 55 -31 78 -179 167 -104 63
-177 85 -248 75z"/>
<path d="M1222 863 c-49 -24 -82 -78 -82 -134 0 -58 21 -79 79 -79 51 0 90 19
125 60 30 36 33 77 11 120 -27 52 -73 63 -133 33z"/>
<path d="M906 829 c-38 -30 -56 -71 -56 -127 0 -59 14 -75 69 -74 87 1 141 50
141 127 0 78 -92 122 -154 74z"/>
<path d="M1401 664 c-21 -27 -24 -46 -21 -118 3 -66 29 -90 93 -88 82 2 128
133 71 201 -22 27 -32 31 -74 31 -41 0 -52 -4 -69 -26z"/>
<path d="M991 575 c-51 -25 -99 -45 -108 -45 -8 0 -30 -15 -49 -34 -28 -28
-34 -42 -34 -76 0 -73 28 -104 144 -159 87 -42 109 -57 159 -114 69 -79 106
-95 172 -77 24 7 54 23 67 37 22 24 23 31 23 191 0 100 -4 179 -11 197 -13 36
-74 92 -120 111 -19 8 -60 14 -92 14 -49 0 -73 -7 -151 -45z"/>
<path d="M1483 389 c-38 -14 -58 -57 -58 -125 0 -77 19 -104 76 -104 43 0 68
27 89 97 10 33 10 48 1 72 -22 52 -65 76 -108 60z"/>
</g>
</svg>
